<?xml version="1.0" encoding="UTF-8" standalone="no"?>
<!-- Generator: Adobe Illustrator 16.0.0, SVG Export Plug-In . SVG Version: 6.00 Build 0)  -->

<svg
   xmlns:dc="http://purl.org/dc/elements/1.1/"
   xmlns:cc="http://creativecommons.org/ns#"
   xmlns:rdf="http://www.w3.org/1999/02/22-rdf-syntax-ns#"
   xmlns:svg="http://www.w3.org/2000/svg"
   xmlns="http://www.w3.org/2000/svg"
   xmlns:sodipodi="http://sodipodi.sourceforge.net/DTD/sodipodi-0.dtd"
   xmlns:inkscape="http://www.inkscape.org/namespaces/inkscape"
   version="1.1"
   id="Capa_1"
   x="0px"
   y="0px"
   width="612px"
   height="612px"
   viewBox="0 0 612 612"
   style="enable-background:new 0 0 612 612;"
   xml:space="preserve"
   sodipodi:docname="edbot-dream-small.svg"
   inkscape:version="0.92.3 (2405546, 2018-03-11)"><metadata
   id="metadata45"><rdf:RDF><cc:Work
       rdf:about=""><dc:format>image/svg+xml</dc:format><dc:type
         rdf:resource="http://purl.org/dc/dcmitype/StillImage" /><dc:title></dc:title></cc:Work></rdf:RDF></metadata><defs
   id="defs43" /><sodipodi:namedview
   pagecolor="#ffffff"
   bordercolor="#666666"
   borderopacity="1"
   objecttolerance="10"
   gridtolerance="10"
   guidetolerance="10"
   inkscape:pageopacity="0"
   inkscape:pageshadow="2"
   inkscape:window-width="770"
   inkscape:window-height="655"
   id="namedview41"
   showgrid="false"
   inkscape:zoom="0.38562092"
   inkscape:cx="306"
   inkscape:cy="306"
   inkscape:window-x="247"
   inkscape:window-y="44"
   inkscape:window-maximized="0"
   inkscape:current-layer="Capa_1" />
<g
   id="g8">
	<g
   id="g6">
		<path
   d="M254.417,458.799c-33.187,0-60.187,27.01-60.187,60.209c0,33.188,27,60.188,60.187,60.188s60.187-27,60.187-60.188    C314.604,485.809,287.604,458.799,254.417,458.799z M254.417,564.145c-24.884,0-45.132-20.248-45.132-45.133    c0-24.9,20.244-45.156,45.132-45.156c24.889,0,45.133,20.256,45.133,45.156C299.549,543.896,279.301,564.145,254.417,564.145z"
   id="path2" />
		<path
   d="M612,181.883c0-82.2-66.879-149.079-149.082-149.079c-39.1,0-75.659,14.893-103.638,42.077    c-21.275-13.188-45.629-20.127-70.83-20.127c-62.396,0-115.417,41.907-130.46,101.285c-16.77-11.606-36.661-17.892-57.176-17.892    C45.227,138.147,0,183.362,0,238.938c0,54.192,43.01,98.534,96.693,100.702c2.74,59.814,52.265,107.623,112.749,107.623    c27.489,0,53.368-9.736,73.875-27.609c21.513,34.869,59.212,56.141,100.6,56.141c65.26,0,118.353-53.086,118.353-118.342    c0-10.324-1.396-20.643-4.162-30.789C564.591,310.607,612,251.016,612,181.883z M487.129,313.607    c-2.164,0.395-4.046,1.717-5.152,3.617s-1.328,4.189-0.606,6.266c3.881,11.129,5.846,22.555,5.846,33.959    c0,56.955-46.341,103.287-103.299,103.287c-39.032,0-74.308-21.693-92.064-56.607c-1.103-2.172-3.188-3.674-5.592-4.031    c-0.373-0.061-0.745-0.082-1.114-0.082c-2.028,0-3.985,0.82-5.416,2.295c-18.611,19.277-43.575,29.895-70.285,29.895    c-53.936,0-97.811-43.867-97.811-97.793c0-0.289,0.022-0.572,0.042-0.857c0.026-0.438,0.056-0.877,0.067-1.324    c0.053-2.066-0.749-4.064-2.213-5.525c-1.464-1.461-3.489-2.363-5.529-2.191c-0.568,0.016-1.129,0.049-1.686,0.084    c-0.497,0.029-0.99,0.066-1.494,0.066c-47.296,0.008-85.768-38.451-85.768-85.726c0-47.274,38.471-85.734,85.76-85.734    c21.027,0,41.294,7.772,57.071,21.889c2.051,1.84,4.938,2.405,7.542,1.486c2.593-0.926,4.479-3.195,4.912-5.913    c9.273-58.44,58.948-100.859,118.112-100.859c24.263,0,47.643,7.241,67.605,20.937c3.052,2.093,7.173,1.652,9.717-1.023    c25.619-26.996,60.119-41.862,97.146-41.862c73.905,0,134.031,60.126,134.031,134.024    C596.945,246.583,550.76,301.982,487.129,313.607z"
   id="path4" />
	</g>
</g>
<g
   id="g10">
</g>
<g
   id="g12">
</g>
<g
   id="g14">
</g>
<g
   id="g16">
</g>
<g
   id="g18">
</g>
<g
   id="g20">
</g>
<g
   id="g22">
</g>
<g
   id="g24">
</g>
<g
   id="g26">
</g>
<g
   id="g28">
</g>
<g
   id="g30">
</g>
<g
   id="g32">
</g>
<g
   id="g34">
</g>
<g
   id="g36">
</g>
<g
   id="g38">
</g>
<path
   style="fill:#ffffff;stroke-width:2.59322023"
   d="m 359.76905,456.86259 c -24.0509,-6.07394 -46.31463,-21.89868 -60.16404,-42.76366 -5.34805,-8.05721 -11.37394,-14.22435 -13.89854,-14.22435 -2.45135,0 -8.75152,3.53992 -14.00041,7.8665 -5.24888,4.32656 -16.30904,11.03652 -24.57813,14.91102 -12.99999,6.09114 -18.19329,7.02192 -38.37369,6.87756 -19.32579,-0.13822 -25.79149,-1.30312 -37.6017,-6.77445 -31.63672,-14.65637 -52.58584,-43.14621 -56.88139,-77.35613 -1.28231,-10.21233 -2.72023,-18.93056 -3.19538,-19.37382 -0.47515,-0.44328 -8.82238,-2.0316 -18.549399,-3.52966 C 70.344623,319.07948 55.211313,311.83166 41.230787,297.92855 8.3808114,265.26051 8.4970434,212.44533 41.491525,179.45085 c 28.2988,-28.2988 73.636155,-32.64944 105.953425,-10.16744 16.84847,11.7209 20.92018,9.8949 27.72291,-12.43264 10.42722,-34.22359 31.60332,-59.225725 62.55836,-73.861221 34.12083,-16.132276 71.05356,-15.454607 105.16524,1.929649 9.66483,4.925459 18.05919,8.955378 18.65415,8.955378 0.59497,0 7.02478,-5.072891 14.28852,-11.273094 34.37975,-29.34603 78.36652,-39.856936 120.67691,-28.836481 63.51504,16.543569 107.48426,82.481149 97.64511,146.431609 -7.78181,50.5787 -43.13824,92.25053 -91.19811,107.48805 -23.93384,7.58828 -24.55935,8.3412 -20.60931,24.80682 4.97284,20.72912 2.26243,50.14894 -6.27131,68.07126 -16.10211,33.81712 -49.33967,56.04382 -86.44803,57.80965 -11.05252,0.52596 -24.48968,-0.15352 -29.86034,-1.5098 z"
   id="path53"
   inkscape:connector-curvature="0" /><path
   style="fill:#ffffff;stroke-width:2.59322023"
   d="m 242.4661,561.38584 c -9.7836,-2.37681 -22.66185,-14.43886 -27.7876,-26.02646 -13.34852,-30.17654 12.22705,-63.92098 45.10468,-59.51116 27.13681,3.63981 45.15905,32.96555 35.67896,58.05669 -7.92262,20.96896 -30.85416,32.86004 -52.99604,27.48093 z"
   id="path55"
   inkscape:connector-curvature="0" /></svg>